<?xml version="1.0" encoding="utf-8"?>
<!-- Generator: Adobe Illustrator 21.1.0, SVG Export Plug-In . SVG Version: 6.00 Build 0)  -->
<svg version="1.1" id="Layer_1" xmlns="http://www.w3.org/2000/svg" xmlns:xlink="http://www.w3.org/1999/xlink" x="0px" y="0px"
	 viewBox="0 0 451.9 131.8" style="enable-background:new 0 0 451.9 131.8;" xml:space="preserve">
<style type="text/css">
	.st0{fill:#0033A0;}
</style>
<path class="st0" d="M349.2,112.3c5.1-5.9,10-11.6,15-17.3c2.4,2,4.6,4.1,7,5.9c6.3,4.7,13.2,7.6,21.2,7.3c2-0.1,4.1-0.6,5.9-1.5
	c4.9-2.4,5.7-8.6,1.3-11.9c-2.4-1.9-5.4-3.2-8.2-4.4c-5.7-2.4-11.5-4.5-17.2-7c-4-1.8-7.6-4.3-10.6-7.6c-8.8-9.8-8.1-25.7,1.5-35.8
	c5.9-6.2,13.3-9.3,21.6-10.3c9.3-1.1,18.5-0.1,27.2,3.7c6.2,2.7,11.4,6.7,15.6,11.4c-5.2,5.6-10.4,11-15.5,16.4
	c-1.9-1.8-3.5-3.3-5.3-4.8c-4.5-3.8-9.5-6.7-15.5-6.7c-2.4,0-4.9,0.4-7,1.4c-4.3,2.1-5,7.7-1.4,10.9c1.9,1.7,4.3,3.1,6.7,4.1
	c5.6,2.4,11.4,4.5,17.1,6.8c2.2,0.9,4.4,2.2,6.5,3.4c15.5,9.3,15.5,28.3,6.2,39.5c-5.2,6.3-12.1,9.9-20.1,11.3
	c-17.1,3-33,0.2-47.1-10.5C352.4,115.2,350.9,113.8,349.2,112.3"/>
<path class="st0" d="M231.2,127.8c-11,0.3-20.7-5-23.3-17.1c-0.5-2.4-0.8-4.8-0.8-7.3c-0.1-33.9,0-67.7,0-101.6V0h24.1V127.8z"/>
<path class="st0" d="M131.6,79.7c-0.5-3.3-0.1-6.3,0.6-9.3c2.2-10,10-16.2,20.1-15.8c5.2,0.2,10.5,4.1,12.2,9.2
	C153.5,69.1,142.6,74.4,131.6,79.7 M160.8,108.2c-8.9,0.6-16.5-2.3-23-9c1-0.5,1.6-0.9,2.3-1.2c7.4-3.4,14.8-6.8,22.1-10.3
	c10-4.7,20-9.5,30-14.3c1.1-0.5,1.9-1.1,1.5-2.5c-1.3-5-2-10.2-3.8-15c-4-10.9-11-19.1-22.3-23.1c-8-2.8-16.2-3-24.5-1.7
	c-16.3,2.6-27.5,11.7-33.9,26.7c-3.8,9.1-4.5,18.7-3.9,28.4c0.4,6.8,1.9,13.4,4.9,19.5c5.1,10.4,13.8,16.6,24.1,21.1
	c11.5,5,23.6,5.9,35.9,4.1c10.7-1.5,20-5.9,27.6-13.6c0.5-0.5,0.9-1,1.5-1.6c-5.1-5.8-10.1-11.5-15.3-17.3
	C176.9,103.6,169.5,107.5,160.8,108.2"/>
<path class="st0" d="M313.9,97.3c-9.1,10.9-24.5,10.6-33.1-0.7c-6.8-8.8-7.1-21.8-0.6-30.9c9.8-14,29.4-12.2,36.9,3.3
	c1.8,3.7,2.6,7.7,2.7,12.4C319.6,86.9,317.8,92.5,313.9,97.3 M342.5,62c-3.7-13.1-11.5-23-24.2-28.5c-8.1-3.5-16.6-4.5-25.4-3.7
	c-14.2,1.3-25.8,7.4-33.8,19.3c-9.4,13.9-11,29.2-7.3,45.1c2.8,12.1,9.2,21.9,20.2,28.2c7.6,4.4,16,6,24.7,6.1
	c2.7-0.2,5.5-0.3,8.2-0.7c13.1-1.7,23.8-7.7,31.1-18.8C345.7,94.6,347.2,78.6,342.5,62"/>
<path class="st0" d="M64.2,83c-3,11.2-10.7,17.3-21.9,18.7c-5.5,0.7-11.1,0.5-17,0.7v-2.5c0-21.1,0-42.1,0-63.2
	c0-1.8,0.4-2.6,2.4-2.4c6.2,0.4,12.4,0.2,18.5,1.1c10.3,1.4,16.4,7.8,18.6,17.8C66.9,63.1,66.9,73.1,64.2,83 M88.8,39
	c-3.7-12.8-12.2-21.7-24.6-26.6c-6.8-2.7-14-4.1-21.3-4.2C29.2,7.9,15.4,8.1,1.7,8C1.2,8,0.6,8.1,0,8.2v118.3h2.2
	c10.7,0,21.4,0.1,32.2-0.1c5.1-0.1,10.3-0.3,15.3-1.1c17.4-2.8,30.2-12,36.8-28.5C94.1,77.9,94.4,58.4,88.8,39"/>
<polygon class="st0" points="422.4,0.8 422.4,3.6 426.7,3.6 426.7,15.4 429.8,15.4 429.8,3.6 434.1,3.6 434.1,0.8 "/>
<polygon class="st0" points="447.5,0.8 444,10 440.4,0.8 436,0.8 436,15.4 439.2,15.4 439.2,4.9 443.3,15.4 444.6,15.4 448.8,4.9 
	448.8,15.4 451.9,15.4 451.9,0.8 "/>
</svg>
